<svg width="30" height="32" viewBox="0 0 30 32" fill="none" xmlns="http://www.w3.org/2000/svg">
<path d="M15.4375 12.0125V7.39998H10.7875V5.14998H15.4375V0.537476H17.6875V5.14998H22.3V7.39998H17.6875V12.0125H15.4375ZM8.86706 32C8.12236 32 7.48751 31.7348 6.96251 31.2045C6.43751 30.6742 6.17501 30.0367 6.17501 29.292C6.17501 28.5473 6.44016 27.9125 6.97046 27.3875C7.50079 26.8625 8.13829 26.6 8.88296 26.6C9.62766 26.6 10.2625 26.8651 10.7875 27.3954C11.3125 27.9258 11.575 28.5633 11.575 29.3079C11.575 30.0526 11.3099 30.6875 10.7796 31.2125C10.2492 31.7375 9.61174 32 8.86706 32ZM24.0171 32C23.2724 32 22.6375 31.7348 22.1125 31.2045C21.5875 30.6742 21.325 30.0367 21.325 29.292C21.325 28.5473 21.5902 27.9125 22.1205 27.3875C22.6508 26.8625 23.2883 26.6 24.033 26.6C24.7777 26.6 25.4125 26.8651 25.9375 27.3954C26.4625 27.9258 26.725 28.5633 26.725 29.3079C26.725 30.0526 26.4599 30.6875 25.9296 31.2125C25.3992 31.7375 24.7617 32 24.0171 32ZM8.87501 24.2375C7.82501 24.2375 7.05626 23.8125 6.56876 22.9625C6.08126 22.1125 6.08751 21.25 6.58751 20.375L8.87501 16.2125L3.25001 4.24998H0.325012V1.99998H4.67501L11.05 15.65H22L27.85 5.14998L29.8 6.19998L24.0625 16.5875C23.8285 17.0042 23.5199 17.3271 23.137 17.5562C22.754 17.7854 22.3 17.9 21.775 17.9H10.525L8.20001 21.9875H26.725V24.2375H8.87501Z" fill="white"/>
</svg>
